REM DIRINDEX 1\2,1\3,1\4,1\5
REM DIRNAME folder01,folder02,folder03,folder04,folder05
TITLE ""
FILE "CD2Track08.mp3" MP3
  TRACK 01 AUDIO
    TITLE "5:cjc155_2271"
    INDEX 01 00:00:00
  TRACK 02 AUDIO
    TITLE "0:"
    INDEX 01 00:01:30
  TRACK 03 AUDIO
    TITLE "2:cjc155_2272"
    INDEX 01 00:02:36
  TRACK 04 AUDIO
    TITLE "3:cjc155_2273"
    INDEX 01 00:04:33
  TRACK 05 AUDIO
    TITLE "2:cjc155_2274"
    INDEX 01 00:06:41
  TRACK 06 AUDIO
    TITLE "3:cjc155_2275"
    INDEX 01 00:08:42
  TRACK 07 AUDIO
    TITLE "2:cjc155_2276"
    INDEX 01 00:10:55
  TRACK 08 AUDIO
    TITLE "3:cjc155_2277"
    INDEX 01 00:12:58
  TRACK 09 AUDIO
    TITLE "2:cjc155_2278"
    INDEX 01 00:14:68
  TRACK 10 AUDIO
    TITLE "3:cjc155_2279"
    INDEX 01 00:16:44
  TRACK 11 AUDIO
    TITLE "2:cjc155_2280"
    INDEX 01 00:18:25
  TRACK 12 AUDIO
    TITLE "3:cjc155_2281"
    INDEX 01 00:20:39
  TRACK 13 AUDIO
    TITLE "2:cjc155_2282"
    INDEX 01 00:22:64
  TRACK 14 AUDIO
    TITLE "3:cjc155_2283"
    INDEX 01 00:24:53
  TRACK 15 AUDIO
    TITLE "2:cjc155_2284"
    INDEX 01 00:26:52
  TRACK 16 AUDIO
    TITLE "3:cjc155_2285"
    INDEX 01 00:28:62
  TRACK 17 AUDIO
    TITLE "2:cjc155_2286"
    INDEX 01 00:30:69
  TRACK 18 AUDIO
    TITLE "3:cjc155_2287"
    INDEX 01 00:32:17
  TRACK 19 AUDIO
    TITLE "2:cjc155_2288"
    INDEX 01 00:33:50
  TRACK 20 AUDIO
    TITLE "3:cjc155_2289"
    INDEX 01 00:35:14
  TRACK 21 AUDIO
    TITLE "2:cjc155_2290"
    INDEX 01 00:36:52
  TRACK 22 AUDIO
    TITLE "3:cjc155_2291"
    INDEX 01 00:37:67
  TRACK 23 AUDIO
    TITLE "2:cjc155_2292"
    INDEX 01 00:39:11
  TRACK 24 AUDIO
    TITLE "3:cjc155_2293"
    INDEX 01 00:41:28
  TRACK 25 AUDIO
    TITLE "2:cjc155_2294"
    INDEX 01 00:43:46
  TRACK 26 AUDIO
    TITLE "3:cjc155_2295"
    INDEX 01 00:44:67
  TRACK 27 AUDIO
    TITLE "2:cjc155_2296"
    INDEX 01 00:46:21
  TRACK 28 AUDIO
    TITLE "3:cjc155_2297"
    INDEX 01 00:47:72
  TRACK 29 AUDIO
    TITLE "2:cjc155_2298"
    INDEX 01 00:49:53
  TRACK 30 AUDIO
    TITLE "3:cjc155_2299"
    INDEX 01 00:51:58
  TRACK 31 AUDIO
    TITLE "2:cjc155_2300"
    INDEX 01 00:53:68
  TRACK 32 AUDIO
    TITLE "3:cjc155_2301"
    INDEX 01 00:55:16
  TRACK 33 AUDIO
    TITLE "2:cjc155_2302"
    INDEX 01 00:56:45
  TRACK 34 AUDIO
    TITLE "3:cjc155_2303"
    INDEX 01 00:58:40
  TRACK 35 AUDIO
    TITLE "2:cjc155_2304"
    INDEX 01 01:00:49
  TRACK 36 AUDIO
    TITLE "3:cjc155_2305"
    INDEX 01 01:02:42
  TRACK 37 AUDIO
    TITLE "2:cjc155_2306"
    INDEX 01 01:04:48
  TRACK 38 AUDIO
    TITLE "3:cjc155_2307"
    INDEX 01 01:05:64
  TRACK 39 AUDIO
    TITLE "2:cjc155_2308"
    INDEX 01 01:07:14
  TRACK 40 AUDIO
    TITLE "3:cjc155_2309"
    INDEX 01 01:08:64
  TRACK 41 AUDIO
    TITLE "2:cjc155_2310"
    INDEX 01 01:10:51
  TRACK 42 AUDIO
    TITLE "3:cjc155_2311"
    INDEX 01 01:11:68
  TRACK 43 AUDIO
    TITLE "2:cjc155_2312"
    INDEX 01 01:13:18
  TRACK 44 AUDIO
    TITLE "3:cjc155_2313"
    INDEX 01 01:14:51
  TRACK 45 AUDIO
    TITLE "2:cjc155_2314"
    INDEX 01 01:16:16
  TRACK 46 AUDIO
    TITLE "3:cjc155_2315"
    INDEX 01 01:18:15
  TRACK 47 AUDIO
    TITLE "2:cjc155_2316"
    INDEX 01 01:20:24
  TRACK 48 AUDIO
    TITLE "3:cjc155_2317"
    INDEX 01 01:22:15
  TRACK 49 AUDIO
    TITLE "2:cjc155_2318"
    INDEX 01 01:24:16
  TRACK 50 AUDIO
    TITLE "3:cjc155_2319"
    INDEX 01 01:25:37
  TRACK 51 AUDIO
    TITLE "2:cjc155_2320"
    INDEX 01 01:26:70
  TRACK 52 AUDIO
    TITLE "3:cjc155_2321"
    INDEX 01 01:28:51
  TRACK 53 AUDIO
    TITLE "2:cjc155_2322"
    INDEX 01 01:30:28
  TRACK 54 AUDIO
    TITLE "3:cjc155_2323"
    INDEX 01 01:32:17
  TRACK 55 AUDIO
    TITLE "2:cjc155_2324"
    INDEX 01 01:34:16
  TRACK 56 AUDIO
    TITLE "3:cjc155_2325"
    INDEX 01 01:35:71
  TRACK 57 AUDIO
    TITLE "2:cjc155_2326"
    INDEX 01 01:37:60
  TRACK 58 AUDIO
    TITLE "3:cjc155_2327"
    INDEX 01 01:40:05
  TRACK 59 AUDIO
    TITLE "2:cjc155_2328"
    INDEX 01 01:42:33
  TRACK 60 AUDIO
    TITLE "3:cjc155_2329"
    INDEX 01 01:44:03
  TRACK 61 AUDIO
    TITLE "2:cjc155_2330"
    INDEX 01 01:45:55
  TRACK 62 AUDIO
    TITLE "3:cjc155_2331"
    INDEX 01 01:47:31
  TRACK 63 AUDIO
    TITLE "2:cjc155_2332"
    INDEX 01 01:49:16
  TRACK 64 AUDIO
    TITLE "3:cjc155_2333"
    INDEX 01 01:50:31
  TRACK 65 AUDIO
    TITLE "2:cjc155_2334"
    INDEX 01 01:51:60
  TRACK 66 AUDIO
    TITLE "3:cjc155_2335"
    INDEX 01 01:54:54
  TRACK 67 AUDIO
    TITLE "2:cjc155_2336"
    INDEX 01 01:57:55
  TRACK 68 AUDIO
    TITLE "3:cjc155_2337"
    INDEX 01 01:59:63
  TRACK 69 AUDIO
    TITLE "2:cjc155_2338"
    INDEX 01 02:02:03
  TRACK 70 AUDIO
    TITLE "3:cjc155_2339"
    INDEX 01 02:03:24
  TRACK 71 AUDIO
    TITLE "2:cjc155_2340"
    INDEX 01 02:04:51
  TRACK 72 AUDIO
    TITLE "3:cjc155_2341"
    INDEX 01 02:06:20
  TRACK 73 AUDIO
    TITLE "2:cjc155_2342"
    INDEX 01 02:08:01
  TRACK 74 AUDIO
    TITLE "3:cjc155_2343"
    INDEX 01 02:09:66
  TRACK 75 AUDIO
    TITLE "2:cjc155_2344"
    INDEX 01 02:11:63
  TRACK 76 AUDIO
    TITLE "3:cjc155_2345"
    INDEX 01 02:13:36
  TRACK 77 AUDIO
    TITLE "2:cjc155_2346"
    INDEX 01 02:15:21
  TRACK 78 AUDIO
    TITLE "3:cjc155_2347"
    INDEX 01 02:17:53
  TRACK 79 AUDIO
    TITLE "2:cjc155_2348"
    INDEX 01 02:20:20
  TRACK 80 AUDIO
    TITLE "3:cjc155_2349"
    INDEX 01 02:21:26
  TRACK 81 AUDIO
    TITLE "2:cjc155_2350"
    INDEX 01 02:22:45
  TRACK 82 AUDIO
    TITLE "3:cjc155_2351"
    INDEX 01 02:24:22
  TRACK 83 AUDIO
    TITLE "2:cjc155_2352"
    INDEX 01 02:26:11
  TRACK 84 AUDIO
    TITLE "3:cjc155_2353"
    INDEX 01 02:27:24
  TRACK 85 AUDIO
    TITLE "2:cjc155_2354"
    INDEX 01 02:28:53
  TRACK 86 AUDIO
    TITLE "3:cjc155_2355"
    INDEX 01 02:30:56
  TRACK 87 AUDIO
    TITLE "2:cjc155_2356"
    INDEX 01 02:32:69
  TRACK 88 AUDIO
    TITLE "3:cjc155_2357"
    INDEX 01 02:34:66
  TRACK 89 AUDIO
    TITLE "2:cjc155_2358"
    INDEX 01 02:37:03
  TRACK 90 AUDIO
    TITLE "3:cjc155_2359"
    INDEX 01 02:39:20
  TRACK 91 AUDIO
    TITLE "2:cjc155_2360"
    INDEX 01 02:41:48
  TRACK 92 AUDIO
    TITLE "3:cjc155_2361"
    INDEX 01 02:43:27
  TRACK 93 AUDIO
    TITLE "2:cjc155_2362"
    INDEX 01 02:45:18
  TRACK 94 AUDIO
    TITLE "3:cjc155_2363"
    INDEX 01 02:47:56
  TRACK 95 AUDIO
    TITLE "2:cjc155_2364"
    INDEX 01 02:50:31
  TRACK 96 AUDIO
    TITLE "3:cjc155_2365"
    INDEX 01 02:51:39
  TRACK 97 AUDIO
    TITLE "2:cjc155_2366"
    INDEX 01 02:52:60
  TRACK 98 AUDIO
    TITLE "3:cjc155_2367"
    INDEX 01 02:54:41
  TRACK 99 AUDIO
    TITLE "2:cjc155_2368"
    INDEX 01 02:56:26
  TRACK 100 AUDIO
    TITLE "3:cjc155_2369"
    INDEX 01 02:57:69
  TRACK 101 AUDIO
    TITLE "2:cjc155_2370"
    INDEX 01 02:59:40
  TRACK 102 AUDIO
    TITLE "3:cjc155_2371"
    INDEX 01 03:01:31
  TRACK 103 AUDIO
    TITLE "2:cjc155_2372"
    INDEX 01 03:03:40
  TRACK 104 AUDIO
    TITLE "3:cjc155_2373"
    INDEX 01 03:05:03
  TRACK 105 AUDIO
    TITLE "2:cjc155_2374"
    INDEX 01 03:06:54
  TRACK 106 AUDIO
    TITLE "3:cjc155_2375"
    INDEX 01 03:08:27
  TRACK 107 AUDIO
    TITLE "2:cjc155_2376"
    INDEX 01 03:10:10
  TRACK 108 AUDIO
    TITLE "3:cjc155_2377"
    INDEX 01 03:12:39
  TRACK 109 AUDIO
    TITLE "2:cjc155_2378"
    INDEX 01 03:15:00
  TRACK 110 AUDIO
    TITLE "3:cjc155_2379"
    INDEX 01 03:16:52
  TRACK 111 AUDIO
    TITLE "2:cjc155_2380"
    INDEX 01 03:18:43
  TRACK 112 AUDIO
    TITLE "3:cjc155_2381"
    INDEX 01 03:20:21
  TRACK 113 AUDIO
    TITLE "2:cjc155_2382"
    INDEX 01 03:22:06
  TRACK 114 AUDIO
    TITLE "3:cjc155_2383"
    INDEX 01 03:23:40
  TRACK 115 AUDIO
    TITLE "2:cjc155_2384"
    INDEX 01 03:25:08
  TRACK 116 AUDIO
    TITLE "3:cjc155_2385"
    INDEX 01 03:27:28
  TRACK 117 AUDIO
    TITLE "2:cjc155_2386"
    INDEX 01 03:29:59
  TRACK 118 AUDIO
    TITLE "3:cjc155_2387"
    INDEX 01 03:31:65
  TRACK 119 AUDIO
    TITLE "2:cjc155_2388"
    INDEX 01 03:34:07
  TRACK 120 AUDIO
    TITLE "3:cjc155_2389"
    INDEX 01 03:35:32
  TRACK 121 AUDIO
    TITLE "2:cjc155_2390"
    INDEX 01 03:36:71
  TRACK 122 AUDIO
    TITLE "3:cjc155_2391"
    INDEX 01 03:38:32
  TRACK 123 AUDIO
    TITLE "2:cjc155_2392"
    INDEX 01 03:39:73
  TRACK 124 AUDIO
    TITLE "3:cjc155_2393"
    INDEX 01 03:41:13
  TRACK 125 AUDIO
    TITLE "2:cjc155_2394"
    INDEX 01 03:42:40
  TRACK 126 AUDIO
    TITLE "3:cjc155_2395"
    INDEX 01 03:44:29
  TRACK 127 AUDIO
    TITLE "2:cjc155_2396"
    INDEX 01 03:46:28
  TRACK 128 AUDIO
    TITLE "3:cjc155_2397"
    INDEX 01 03:47:39
  TRACK 129 AUDIO
    TITLE "2:cjc155_2398"
    INDEX 01 03:48:58
  TRACK 130 AUDIO
    TITLE "3:cjc155_2399"
    INDEX 01 03:50:26
  TRACK 131 AUDIO
    TITLE "2:cjc155_2400"
    INDEX 01 03:51:72
  TRACK 132 AUDIO
    TITLE "3:cjc155_2401"
    INDEX 01 03:53:36
  TRACK 133 AUDIO
    TITLE "2:cjc155_2402"
    INDEX 01 03:55:09
  TRACK 134 AUDIO
    TITLE "3:cjc155_2403"
    INDEX 01 03:56:40
  TRACK 135 AUDIO
    TITLE "2:cjc155_2404"
    INDEX 01 03:58:02
  TRACK 136 AUDIO
    TITLE "3:cjc155_2405"
    INDEX 01 03:59:44
  TRACK 137 AUDIO
    TITLE "2:cjc155_2406"
    INDEX 01 04:01:21
  TRACK 138 AUDIO
    TITLE "3:cjc155_2407"
    INDEX 01 04:03:46
  TRACK 139 AUDIO
    TITLE "2:cjc155_2408"
    INDEX 01 04:06:03
  TRACK 140 AUDIO
    TITLE "3:cjc155_2409"
    INDEX 01 04:07:42
  TRACK 141 AUDIO
    TITLE "2:cjc155_2410"
    INDEX 01 04:09:13
  TRACK 142 AUDIO
    TITLE "3:cjc155_2411"
    INDEX 01 04:10:36
  TRACK 143 AUDIO
    TITLE "2:cjc155_2412"
    INDEX 01 04:11:71
  TRACK 144 AUDIO
    TITLE "3:cjc155_2413"
    INDEX 01 04:12:66
  TRACK 145 AUDIO
    TITLE "2:cjc155_2414"
    INDEX 01 04:14:01
  TRACK 146 AUDIO
    TITLE "3:cjc155_2415"
    INDEX 01 04:15:55
  TRACK 147 AUDIO
    TITLE "2:cjc155_2416"
    INDEX 01 04:17:48
  TRACK 148 AUDIO
    TITLE "3:cjc155_2417"
    INDEX 01 04:18:63
  TRACK 149 AUDIO
    TITLE "2:cjc155_2418"
    INDEX 01 04:20:13
  TRACK 150 AUDIO
    TITLE "3:cjc155_2419"
    INDEX 01 04:21:59
  TRACK 151 AUDIO
    TITLE "2:cjc155_2420"
    INDEX 01 04:23:45
  TRACK 152 AUDIO
    TITLE "3:cjc155_2421"
    INDEX 01 04:25:14
  TRACK 153 AUDIO
    TITLE "2:cjc155_2422"
    INDEX 01 04:26:70
  TRACK 154 AUDIO
    TITLE "3:cjc155_2423"
    INDEX 01 04:28:30
  TRACK 155 AUDIO
    TITLE "2:cjc155_2424"
    INDEX 01 04:30:00
  TRACK 156 AUDIO
    TITLE "3:cjc155_2425"
    INDEX 01 04:32:12
  TRACK 157 AUDIO
    TITLE "2:cjc155_2426"
    INDEX 01 04:34:39
  TRACK 158 AUDIO
    TITLE "3:cjc155_2427"
    INDEX 01 04:36:22
  TRACK 159 AUDIO
    TITLE "2:cjc155_2428"
    INDEX 01 04:38:17
  TRACK 160 AUDIO
    TITLE "3:cjc155_2429"
    INDEX 01 04:40:14
  TRACK 161 AUDIO
    TITLE "2:cjc155_2430"
    INDEX 01 04:42:11
  TRACK 162 AUDIO
    TITLE "3:cjc155_2431"
    INDEX 01 04:43:41
  TRACK 163 AUDIO
    TITLE "2:cjc155_2432"
    INDEX 01 04:45:03
  TRACK 164 AUDIO
    TITLE "3:cjc155_2433"
    INDEX 01 04:47:53
  TRACK 165 AUDIO
    TITLE "2:cjc155_2434"
    INDEX 01 04:50:38
  TRACK 166 AUDIO
    TITLE "3:cjc155_2435"
    INDEX 01 04:51:43
  TRACK 167 AUDIO
    TITLE "2:cjc155_2436"
    INDEX 01 04:52:50
  TRACK 168 AUDIO
    TITLE "3:cjc155_2437"
    INDEX 01 04:54:26
  TRACK 169 AUDIO
    TITLE "2:cjc155_2438"
    INDEX 01 04:55:68
  TRACK 170 AUDIO
    TITLE "3:cjc155_2439"
    INDEX 01 04:57:42
  TRACK 171 AUDIO
    TITLE "2:cjc155_2440"
    INDEX 01 04:59:21
  TRACK 172 AUDIO
    TITLE "3:cjc155_2441"
    INDEX 01 05:00:54
  TRACK 173 AUDIO
    TITLE "2:cjc155_2442"
    INDEX 01 05:02:19
  TRACK 174 AUDIO
    TITLE "3:cjc155_2443"
    INDEX 01 05:04:18
  TRACK 175 AUDIO
    TITLE "2:cjc155_2444"
    INDEX 01 05:06:19
  TRACK 176 AUDIO
    TITLE "3:cjc155_2445"
    INDEX 01 05:08:32
  TRACK 177 AUDIO
    TITLE "2:cjc155_2446"
    INDEX 01 05:10:50
  TRACK 178 AUDIO
    TITLE "3:cjc155_2447"
    INDEX 01 05:13:01
  TRACK 179 AUDIO
    TITLE "2:cjc155_2448"
    INDEX 01 05:15:39
  TRACK 180 AUDIO
    TITLE "3:cjc155_2449"
    INDEX 01 05:17:40
  TRACK 181 AUDIO
    TITLE "2:cjc155_2450"
    INDEX 01 05:19:41
  TRACK 182 AUDIO
    TITLE "3:cjc155_2451"
    INDEX 01 05:21:68
  TRACK 183 AUDIO
    TITLE "2:cjc155_2452"
    INDEX 01 05:24:19
  TRACK 184 AUDIO
    TITLE "3:cjc155_2453"
    INDEX 01 05:25:46
  TRACK 185 AUDIO
    TITLE "2:cjc155_2454"
    INDEX 01 05:27:11
  TRACK 186 AUDIO
    TITLE "3:cjc155_2455"
    INDEX 01 05:29:30
  TRACK 187 AUDIO
    TITLE "2:cjc155_2456"
    INDEX 01 05:31:54
  TRACK 188 AUDIO
    TITLE "3:cjc155_2457"
    INDEX 01 05:32:69
  TRACK 189 AUDIO
    TITLE "2:cjc155_2458"
    INDEX 01 05:34:21
  TRACK 190 AUDIO
    TITLE "3:cjc155_2459"
    INDEX 01 05:37:18
  TRACK 191 AUDIO
    TITLE "2:cjc155_2460"
    INDEX 01 05:40:14
  TRACK 192 AUDIO
    TITLE "3:cjc155_2461"
    INDEX 01 05:41:29
  TRACK 193 AUDIO
    TITLE "2:cjc155_2462"
    INDEX 01 05:42:52
  TRACK 194 AUDIO
    TITLE "3:cjc155_2463"
    INDEX 01 05:44:18
  TRACK 195 AUDIO
    TITLE "2:cjc155_2464"
    INDEX 01 05:46:01
  TRACK 196 AUDIO
    TITLE "3:cjc155_2465"
    INDEX 01 05:47:59
  TRACK 197 AUDIO
    TITLE "2:cjc155_2466"
    INDEX 01 05:49:52
  TRACK 198 AUDIO
    TITLE "3:cjc155_2467"
    INDEX 01 05:52:00
  TRACK 199 AUDIO
    TITLE "2:cjc155_2468"
    INDEX 01 05:54:28
  TRACK 200 AUDIO
    TITLE "3:cjc155_2469"
    INDEX 01 05:55:57
  TRACK 201 AUDIO
    TITLE "2:cjc155_2470"
    INDEX 01 05:57:18
  TRACK 202 AUDIO
    TITLE "3:cjc155_2471"
    INDEX 01 05:59:51
  TRACK 203 AUDIO
    TITLE "2:cjc155_2472"
    INDEX 01 06:02:18
  TRACK 204 AUDIO
    TITLE "3:cjc155_2473"
    INDEX 01 06:03:52
  TRACK 205 AUDIO
    TITLE "2:cjc155_2474"
    INDEX 01 06:05:30
  TRACK 206 AUDIO
    TITLE "3:cjc155_2475"
    INDEX 01 06:07:30
  TRACK 207 AUDIO
    TITLE "2:cjc155_2476"
    INDEX 01 06:09:37
  TRACK 208 AUDIO
    TITLE "3:cjc155_2477"
    INDEX 01 06:10:46
  TRACK 209 AUDIO
    TITLE "2:cjc155_2478"
    INDEX 01 06:11:65
  TRACK 210 AUDIO
    TITLE "3:cjc155_2479"
    INDEX 01 06:13:53
  TRACK 211 AUDIO
    TITLE "2:cjc155_2480"
    INDEX 01 06:15:48
  TRACK 212 AUDIO
    TITLE "3:cjc155_2481"
    INDEX 01 06:17:45
  TRACK 213 AUDIO
    TITLE "2:cjc155_2482"
    INDEX 01 06:19:49
  TRACK 214 AUDIO
    TITLE "3:cjc155_2483"
    INDEX 01 06:20:72
  TRACK 215 AUDIO
    TITLE "2:cjc155_2484"
    INDEX 01 06:22:30
  TRACK 216 AUDIO
    TITLE "3:cjc155_2485"
    INDEX 01 06:23:35
  TRACK 217 AUDIO
    TITLE "2:cjc155_2486"
    INDEX 01 06:24:52
  TRACK 218 AUDIO
    TITLE "3:cjc155_2487"
    INDEX 01 06:26:53
  TRACK 219 AUDIO
    TITLE "2:cjc155_2488"
    INDEX 01 06:28:62
  TRACK 220 AUDIO
    TITLE "3:cjc155_2489"
    INDEX 01 06:30:26
  TRACK 221 AUDIO
    TITLE "2:cjc155_2490"
    INDEX 01 06:31:68
  TRACK 222 AUDIO
    TITLE "3:cjc155_2491"
    INDEX 01 06:33:10
  TRACK 223 AUDIO
    TITLE "2:cjc155_2492"
    INDEX 01 06:34:37
  TRACK 224 AUDIO
    TITLE "3:cjc155_2493"
    INDEX 01 06:36:65
  TRACK 225 AUDIO
    TITLE "2:cjc155_2494"
    INDEX 01 06:39:30
  TRACK 226 AUDIO
    TITLE "3:cjc155_2495"
    INDEX 01 06:41:04
  TRACK 227 AUDIO
    TITLE "2:cjc155_2496"
    INDEX 01 06:42:66
  TRACK 228 AUDIO
    TITLE "3:cjc155_2497"
    INDEX 01 06:44:22
  TRACK 229 AUDIO
    TITLE "2:cjc155_2498"
    INDEX 01 06:45:62
  TRACK 230 AUDIO
    TITLE "3:cjc155_2499"
    INDEX 01 06:47:20
  TRACK 231 AUDIO
    TITLE "2:cjc155_2500"
    INDEX 01 06:48:59
  TRACK 232 AUDIO
    TITLE "3:cjc155_2501"
    INDEX 01 06:50:44
  TRACK 233 AUDIO
    TITLE "2:cjc155_2502"
    INDEX 01 06:52:35
  TRACK 234 AUDIO
    TITLE "3:cjc155_2503"
    INDEX 01 06:54:06
  TRACK 235 AUDIO
    TITLE "2:cjc155_2504"
    INDEX 01 06:55:65
  TRACK 236 AUDIO
    TITLE "3:cjc155_2505"
    INDEX 01 06:58:04
  TRACK 237 AUDIO
    TITLE "2:cjc155_2506"
    INDEX 01 07:00:27
  TRACK 238 AUDIO
    TITLE "3:cjc155_2507"
    INDEX 01 07:02:39
  TRACK 239 AUDIO
    TITLE "2:cjc155_2508"
    INDEX 01 07:04:70
  TRACK 240 AUDIO
    TITLE "3:cjc155_2509"
    INDEX 01 07:07:11
  TRACK 241 AUDIO
    TITLE "2:cjc155_2510"
    INDEX 01 07:09:33
  TRACK 242 AUDIO
    TITLE "3:cjc155_2511"
    INDEX 01 07:11:09
  TRACK 243 AUDIO
    TITLE "2:cjc155_2512"
    INDEX 01 07:12:71
  TRACK 244 AUDIO
    TITLE "3:cjc155_2513"
    INDEX 01 07:14:60
  TRACK 245 AUDIO
    TITLE "2:cjc155_2514"
    INDEX 01 07:16:57
  TRACK 246 AUDIO
    TITLE "3:cjc155_2515"
    INDEX 01 07:18:23
  TRACK 247 AUDIO
    TITLE "2:cjc155_2516"
    INDEX 01 07:19:65
  TRACK 248 AUDIO
    TITLE "3:cjc155_2517"
    INDEX 01 07:21:62
  TRACK 249 AUDIO
    TITLE "2:cjc155_2518"
    INDEX 01 07:23:69
  TRACK 250 AUDIO
    TITLE "3:cjc155_2519"
    INDEX 01 07:25:27
  TRACK 251 AUDIO
    TITLE "2:cjc155_2520"
    INDEX 01 07:26:59
  TRACK 252 AUDIO
    TITLE "3:cjc155_2521"
    INDEX 01 07:28:05
  TRACK 253 AUDIO
    TITLE "2:cjc155_2522"
    INDEX 01 07:29:38
  TRACK 254 AUDIO
    TITLE "3:cjc155_2523"
    INDEX 01 07:31:12
  TRACK 255 AUDIO
    TITLE "2:cjc155_2524"
    INDEX 01 07:32:64
  TRACK 256 AUDIO
    TITLE "3:cjc155_2525"
    INDEX 01 07:35:58
  TRACK 257 AUDIO
    TITLE "2:cjc155_2526"
    INDEX 01 07:38:65
  TRACK 258 AUDIO
    TITLE "3:cjc155_2527"
    INDEX 01 07:40:22
  TRACK 259 AUDIO
    TITLE "2:cjc155_2528"
    INDEX 01 07:41:69
  TRACK 260 AUDIO
    TITLE "3:cjc155_2529"
    INDEX 01 07:44:04
  TRACK 261 AUDIO
    TITLE "0:"
    INDEX 01 07:45:74
